<svg width="24" height="24" viewBox="0 0 24 24" fill="none" xmlns="http://www.w3.org/2000/svg">
<path fill-rule="evenodd" clip-rule="evenodd" d="M21.759 5.63401C21.117 5.63401 20.596 5.11401 20.596 4.47101C20.596 3.82801 21.117 3.30701 21.759 3.30701C22.402 3.30701 22.923 3.82801 22.923 4.47101C22.923 5.11401 22.402 5.63401 21.759 5.63401ZM20.16 10.198C19.952 10.683 19.644 11.134 19.226 11.458C18.977 11.652 18.691 11.797 18.388 11.881C18.082 11.968 17.762 11.998 17.445 11.986C17.1 11.972 16.756 11.904 16.44 11.764C15.956 11.554 15.559 11.176 15.277 10.734C15.044 10.372 14.885 9.96701 14.775 9.55201C14.645 9.05501 14.585 8.54301 14.563 8.03001C14.54 7.34901 14.565 6.66101 14.706 5.99201C14.81 5.50601 14.971 5.02801 15.225 4.59901C15.454 4.21501 15.76 3.87401 16.137 3.63301C16.485 3.40701 16.89 3.27501 17.303 3.24101C17.722 3.20401 18.151 3.24501 18.549 3.38701C19.019 3.55101 19.427 3.87101 19.726 4.26701C20.107 4.76301 20.328 5.36401 20.452 5.97301C20.601 6.71801 20.623 7.48401 20.58 8.24101C20.536 8.90801 20.423 9.58001 20.16 10.198ZM18.698 6.83001C18.667 6.42501 18.616 6.01701 18.487 5.63001C18.406 5.38701 18.282 5.14901 18.079 4.98801C17.904 4.84801 17.669 4.80501 17.451 4.83301C17.274 4.85401 17.108 4.94101 16.988 5.07401C16.808 5.26701 16.704 5.51701 16.629 5.76701C16.51 6.17001 16.47 6.58901 16.446 7.00701C16.423 7.48101 16.426 7.95601 16.461 8.42901C16.491 8.81301 16.541 9.19901 16.666 9.56601C16.746 9.79801 16.859 10.027 17.042 10.196C17.178 10.323 17.364 10.389 17.549 10.391C17.722 10.396 17.899 10.356 18.042 10.255C18.2 10.146 18.313 9.98301 18.397 9.81301C18.508 9.57401 18.571 9.31601 18.618 9.05801C18.683 8.67401 18.711 8.28501 18.719 7.89501C18.731 7.54001 18.721 7.18501 18.698 6.83001ZM13.447 10.925C13.154 11.309 12.748 11.597 12.306 11.783C11.803 11.986 11.247 12.018 10.713 11.967C10.159 11.914 9.60702 11.725 9.17802 11.362C8.74602 11 8.45102 10.494 8.28202 9.95901C8.07202 9.29901 8.04002 8.59601 8.07802 7.90901C8.12002 7.24901 8.26202 6.59001 8.54602 5.99001C8.79302 5.46001 9.14602 4.98001 9.58802 4.59801C10.02 4.22201 10.527 3.93901 11.063 3.74601C11.814 3.47201 12.617 3.36701 13.412 3.36001C13.441 3.84901 13.478 4.33801 13.507 4.82601C13.512 4.85101 13.5 4.88501 13.471 4.88501C12.878 4.90301 12.278 4.96701 11.717 5.17201C11.289 5.32601 10.889 5.57401 10.585 5.91601C10.4 6.12501 10.255 6.37001 10.157 6.63101C10.434 6.51601 10.731 6.46201 11.03 6.44601C11.452 6.43401 11.881 6.46701 12.288 6.58601C12.724 6.71701 13.14 6.94701 13.447 7.28901C13.625 7.48901 13.768 7.72001 13.862 7.97001C13.955 8.21701 14.013 8.47601 14.04 8.73801C14.079 9.08401 14.064 9.43701 13.983 9.77601C13.889 10.192 13.711 10.59 13.447 10.925ZM11.99 8.28501C11.859 8.10601 11.653 8.00001 11.442 7.95001C11.134 7.87701 10.814 7.88601 10.502 7.92401C10.306 7.95001 10.108 7.98401 9.92602 8.06601C9.92602 8.17501 9.91502 8.28301 9.91402 8.39201C9.92002 8.58801 9.92502 8.78501 9.94902 8.98001C9.98402 9.29201 10.05 9.60801 10.201 9.88601C10.317 10.102 10.501 10.289 10.733 10.375C10.92 10.441 11.123 10.453 11.319 10.426C11.571 10.391 11.792 10.232 11.946 10.034C12.137 9.78501 12.223 9.46901 12.233 9.15901C12.233 8.85401 12.179 8.53301 11.99 8.28501ZM5.42102 11.778C5.07302 11.895 4.70902 11.956 4.34402 11.982C3.61902 12.039 2.88902 11.955 2.18502 11.777C1.91802 11.709 1.65202 11.633 1.40002 11.52C1.51402 11.019 1.63202 10.52 1.74902 10.019C1.75102 9.98801 1.79202 9.98101 1.81502 9.99401C2.03302 10.084 2.25502 10.162 2.47902 10.233C2.72802 10.318 2.98702 10.368 3.24902 10.392C3.54702 10.418 3.84802 10.428 4.14602 10.397C4.37902 10.372 4.61302 10.323 4.82002 10.21C5.06802 10.073 5.26102 9.83001 5.31802 9.55001C5.36202 9.33401 5.35602 9.10301 5.28002 8.89501C5.18602 8.64901 4.97902 8.45901 4.74302 8.35101C4.43102 8.20501 4.08102 8.17901 3.74202 8.16201C3.46802 8.16001 3.19402 8.16201 2.92002 8.16101C2.88802 8.16701 2.86102 8.13701 2.86702 8.10701C2.86702 7.64001 2.86602 7.17401 2.86802 6.70701C2.86302 6.67701 2.89002 6.65501 2.91902 6.65901C3.21202 6.65701 3.50502 6.66001 3.79802 6.65701C4.10302 6.64101 4.42302 6.59201 4.67802 6.41101C4.82602 6.30301 4.93802 6.14401 4.98502 5.96701C5.02502 5.80601 5.03502 5.63601 5.00202 5.47401C4.94502 5.21501 4.74202 5.00601 4.50202 4.90701C4.20302 4.77901 3.86802 4.78701 3.55102 4.82801C3.23202 4.86701 2.92602 4.97701 2.63602 5.11401C2.51602 5.17201 2.39702 5.23201 2.28502 5.30301C2.25602 5.31901 2.22602 5.34801 2.19202 5.33101C2.16002 5.28801 2.14302 5.23801 2.11902 5.19101C1.92502 4.79201 1.73302 4.39201 1.53902 3.99301C1.82102 3.81501 2.11802 3.65801 2.43002 3.53901C2.96802 3.33501 3.54102 3.21001 4.11702 3.22901C4.63202 3.23901 5.15502 3.31601 5.62302 3.54001C6.05702 3.74101 6.42802 4.09001 6.63402 4.52501C6.80702 4.88901 6.87402 5.29801 6.86002 5.70001C6.82102 6.33901 6.44302 6.95101 5.88402 7.26201C6.19202 7.39701 6.47802 7.59201 6.69702 7.85001C6.85802 8.03701 6.98302 8.25401 7.06602 8.48701C7.18902 8.83701 7.21602 9.21401 7.18602 9.58201C7.14602 10.082 6.98402 10.585 6.65902 10.973C6.34202 11.363 5.89202 11.622 5.42102 11.778ZM4.96902 13.903L4.95902 15.062C4.95902 15.062 2.48202 15.508 2.48202 16.561C2.48202 18.124 9.07202 18.184 9.07202 18.184V16.407L12.914 19.576L9.07202 22.676V21.037C9.07202 21.037 1.86602 20.482 0.983024 18.021C-0.257976 14.565 4.96902 13.903 4.96902 13.903ZM19.347 16.45C19.347 15.628 17.203 14.95 17.203 14.95L17.207 13.903C17.207 13.903 22.476 14.58 20.709 18.159C19.441 20.726 13.904 20.913 13.904 20.913V18.129C13.904 18.129 19.347 18.016 19.347 16.45Z" fill="#999999"/>
</svg>
