<svg width="24" height="24" viewBox="0 0 24 24" fill="none" xmlns="http://www.w3.org/2000/svg">
<path fill-rule="evenodd" clip-rule="evenodd" d="M21.799 8.01899C21.799 8.01899 21.605 6.64798 21.005 6.04198C20.244 5.24998 19.393 5.24598 19.002 5.19998C16.202 4.99998 12.003 4.99998 12.003 4.99998H11.995C11.995 4.99998 7.798 4.99998 4.998 5.20198C4.607 5.24798 3.756 5.25198 2.995 6.04398C2.395 6.64798 2.2 8.01899 2.2 8.01899C2.2 8.01899 2 9.62998 2 11.242V12.752C2 14.364 2.2 15.973 2.2 15.973C2.2 15.973 2.395 17.344 2.995 17.949C3.756 18.742 4.754 18.716 5.201 18.8C6.801 18.953 12.001 19 12.001 19C12.001 19 16.202 18.994 19.002 18.792C19.393 18.746 20.244 18.742 21.005 17.949C21.605 17.346 21.799 15.973 21.799 15.973C21.799 15.973 22 14.362 22 12.752V11.242C21.998 9.62998 21.799 8.01899 21.799 8.01899ZM9.911 14.758V9.15299L15 12L9.911 14.758Z" fill="#999999"/>
</svg>
